# xmcd CD database file
#
# Track frame offsets:
#	150
#	22305
#	46368
#	68972
#	96380
#	123418
#	149930
#	184687
#	216830
#	227960
#	255825
#	280860
#	296398
#	317735
#	341040
#
# Disc length: 4654 seconds
#
# Revision: 0
# Processed by: cddbd v1.5.2PL0 Copyright (c) Steve Scherf et al.
# Submitted via: CDex 1.84
#
DISCID=f3122c0f
DTITLE=James Morrison - The Very Best Of James Morrison [CD2)
DYEAR=2014
DGENRE=Jazz
TTITLE0=I've Never Been In Love Before
TTITLE1=Air
TTITLE2=Tokyo Express
TTITLE3=Every Time We Say Goodbye
TTITLE4=Waltzing Matilda
TTITLE5=Greensleeves
TTITLE6=Still Dangerous
TTITLE7=My Beautiful
TTITLE8=On The Edge
TTITLE9=Girl Talk
TTITLE10=Scream Machine
TTITLE11=I Can See Clearly Now
TTITLE12=Chameleon
TTITLE13=I Fall In Love Too Easily
TTITLE14=The Play Off
EXTD=YEAR: 2014
EXTT0=
EXTT1=
EXTT2=
EXTT3=
EXTT4=
EXTT5=
EXTT6=
EXTT7=
EXTT8=
EXTT9=
EXTT10=
EXTT11=
EXTT12=
EXTT13=
EXTT14=
PLAYORDER=
